PathFileType	4	(X/Y/Z)	C:\My Captures\DataSMARTClinic\0004~001 ID\0004~aa~STRATO_01\Standing_STRATO_ID_01.trc
DataRate	CameraRate	NumFrames	NumMarkers	Units	OrigDataRate	OrigDataStartFrame	OrigNumFrames
250.00	250.00	8	22	mm	250.00	673	2711
Frame#	Time	r.should			l.should			c7			r.asis			l.asis			sacrum			r.bar1			l.bar1			r.knee1			l.knee1			r.bar2			r.mall			l.bar2			l.mall			r.met			r.heel			l.heel			l.met			r.mallm			l.mallm			r.kneem			l.kneem			
		X1	Y1	Z1	X2	Y2	Z2	X3	Y3	Z3	X4	Y4	Z4	X5	Y5	Z5	X6	Y6	Z6	X7	Y7	Z7	X8	Y8	Z8	X9	Y9	Z9	X10	Y10	Z10	X11	Y11	Z11	X12	Y12	Z12	X13	Y13	Z13	X14	Y14	Z14	X15	Y15	Z15	X16	Y16	Z16	X17	Y17	Z17	X18	Y18	Z18	X19	Y19	Z19	X20	Y20	Z20	X21	Y21	Z21	X22	Y22	Z22	

672	2.688000	879.755735	1282.512546	339.721769	839.817882	1280.999780	36.105797	772.067368	1345.948935	189.198881	933.372796	873.425364	345.149100	952.372551	874.196291	75.845271	738.853455	900.113940	193.903625	860.750139	785.444915	387.762189	893.404365	773.919404	16.057016	838.165104	438.368499	355.672747	848.200619	434.730947	37.325554	818.832159	377.910495	360.622913	810.079098	79.293996	332.414240	840.054095	367.503673	31.746820	818.679929	75.906120	48.869759	933.911920	43.888137	313.279808	750.205755	43.720502	291.667879	748.020589	43.357510	81.445500	944.922090	41.302569	83.328277	812.114537	76.051407	252.485603	822.248280	81.919082	125.973612	824.036598	410.530180	228.525490	838.969231	406.265080	163.837343	
673	2.692000	879.746497	1282.509089	339.715242	839.803219	1280.995131	36.109336	772.074938	1345.940471	189.203709	933.322012	873.405576	345.158249	952.355623	874.187469	75.840361	738.852859	900.108337	193.900898	861.426651	785.612822	388.803244	893.368483	773.923814	16.046004	838.179886	438.374877	355.676591	848.187804	434.724748	37.330821	818.800330	377.897263	360.622734	810.097337	79.288498	332.415670	840.038717	367.510647	31.745259	818.702102	75.897813	48.872270	933.896840	43.883950	313.286692	750.139713	43.735169	291.694880	747.560561	43.494932	81.162371	944.916368	41.291744	83.329223	812.102735	76.049589	252.481729	822.245598	81.910633	125.976726	824.011207	410.520077	228.524968	838.950515	406.254262	163.844720	
674	2.696000	879.725277	1282.495022	339.708477	839.789629	1280.993223	36.113013	772.047162	1345.941663	189.211696	933.305323	873.400807	345.172673	952.352643	874.180794	75.843364	738.850296	900.107861	193.895966	862.323284	785.879850	390.255213	893.366218	773.911834	16.031587	838.176906	438.375533	355.691582	848.185122	434.721053	37.326146	818.789899	377.895534	360.624552	810.099423	79.276234	332.418919	840.030909	367.508888	31.748436	818.693161	75.901583	48.867192	933.897078	43.874107	313.291132	750.190496	43.708079	291.684717	747.496724	43.515041	81.095383	944.910645	41.281492	83.334506	812.089920	76.046892	252.485156	822.253406	81.909642	125.978827	823.995948	410.513282	228.522152	838.951588	406.253457	163.845435	
675	2.700000	879.711986	1282.488227	339.719623	839.790523	1280.996084	36.107358	772.052467	1345.922828	189.218134	933.300376	873.392701	345.167339	952.343106	874.183595	75.839557	738.843322	900.112271	193.891644	861.032128	785.521984	388.176680	893.389046	773.906350	16.033674	838.171959	438.371569	355.705976	848.173320	434.708089	37.322663	818.786442	377.895981	360.629946	810.079396	79.262979	332.425177	840.066552	367.522955	31.742714	818.692029	75.897068	48.864629	933.891594	43.864544	313.295543	750.254333	43.674272	291.680306	748.485327	43.268472	81.655242	944.902778	41.273795	83.343059	812.099457	76.033957	252.483815	822.255969	81.909731	125.986755	823.986888	410.502315	228.526741	838.961005	406.250358	163.843423	
676	2.704000	879.712701	1282.488108	339.727402	839.779139	1281.001925	36.100134	772.086024	1345.911980	189.206660	933.299839	873.375952	345.161617	952.344954	874.179423	75.830221	738.843918	900.114834	193.887219	860.658646	785.449266	387.681097	893.372059	773.902416	16.018741	838.178217	438.360214	355.710745	848.191619	434.710026	37.326369	818.786085	377.896845	360.640526	810.086906	79.264469	332.430661	840.039253	367.506295	31.738091	818.692744	75.890973	48.873939	933.888078	43.855965	313.297868	750.289142	43.640211	291.680157	749.740720	42.962037	82.386889	944.909334	41.275892	83.345093	812.103152	76.035306	252.492547	822.259665	81.913121	125.985309	823.982894	410.502911	228.529826	838.965058	406.243920	163.834721	
677	2.708000	879.703581	1282.483459	339.719415	839.753270	1280.993342	36.097609	772.083163	1345.906019	189.196736	933.301806	873.373926	345.155746	952.327430	874.171019	75.832061	738.841712	900.108814	193.888739	861.327291	785.633206	388.763726	893.331170	773.917615	16.028380	838.149369	438.348919	355.711073	848.188818	434.698939	37.334409	818.783641	377.886593	360.642463	810.087085	79.262130	332.428038	840.019703	367.501795	31.734757	818.690300	75.890884	48.876837	933.882356	43.850295	313.304126	750.245750	43.642230	291.710973	749.035895	43.125834	82.015172	944.921732	41.278332	83.340526	812.080622	76.030992	252.501458	822.260380	81.906579	125.982746	823.981643	410.498559	228.533417	838.960886	406.256288	163.836509	
678	2.712000	879.702926	1282.480955	339.706957	839.734972	1280.987501	36.095805	772.064388	1345.892191	189.198092	933.286667	873.376250	345.153630	952.319682	874.170661	75.826772	738.821805	900.098324	193.887040	862.993538	786.098301	391.431659	893.276215	773.904920	16.018989	838.137031	438.355863	355.713040	848.157525	434.694886	37.329916	818.786383	377.889872	360.635370	810.082138	79.270408	332.422853	840.005875	367.496371	31.726319	818.674207	75.897291	48.874050	933.886945	43.849222	313.303739	750.219524	43.673962	291.751534	750.807762	42.730816	83.066814	944.917917	41.271150	83.342716	812.076211	76.033801	252.499849	822.261155	81.904277	125.986591	823.976338	410.497874	228.535637	838.938236	406.257749	163.833529	
679	2.716000	879.689217	1282.485962	339.700907	839.716911	1280.990243	36.093336	772.044897	1345.882177	189.204216	933.268249	873.384476	345.143676	952.319741	874.172449	75.820208	738.817513	900.087118	193.880558	863.385141	786.232471	392.107964	893.278837	773.905635	16.029280	838.129640	438.361824	355.703503	848.139882	434.696436	37.326336	818.765879	377.896219	360.634536	810.073614	79.277672	332.429230	839.990497	367.511123	31.721473	818.661451	75.898647	48.870206	933.892369	43.852430	313.298255	750.221491	43.672699	291.732043	750.257134	42.835906	82.744271	944.900751	41.264255	83.346121	812.085450	76.030500	252.495378	822.259188	81.903271	125.994980	823.950529	410.496533	228.537247	838.933349	406.257927	163.830176	
